<svg height="512pt" viewBox="0 0 512 512" width="512pt" xmlns="http://www.w3.org/2000/svg"><path d="m512 256c0 141.386719-114.613281 256-256 256s-256-114.613281-256-256 114.613281-256 256-256 256 114.613281 256 256zm0 0" fill="#ff641a"/><path d="m509.394531 219.480469-99.402343-99.402344-45.449219 45.445313-63.46875-63.46875-44.546875 44.546874 9.019531 9.019532-163.542969 163.542968 72.804688 72.804688-18.042969 18.042969 101.953125 101.953125c140.128906-1.460938 253.28125-115.488282 253.28125-255.964844 0-12.402344-.898438-24.589844-2.605469-36.519531zm0 0" fill="#f03800"/><path d="m156.742188 355.257812 19.738281-18.046874 16.355469 18.046874v54.742188h-36.09375zm0 0" fill="#47568c"/><path d="m319.164062 355.257812 19.738282-18.046874 16.355468 18.046874v54.742188h-36.09375zm0 0" fill="#2c3b73"/><path d="m156.742188 301.117188h198.515624v54.140624h-198.515624zm0 0" fill="#d8d8fc"/><path d="m256 301.117188h99.257812v54.140624h-99.257812zm0 0" fill="#a3a3d1"/><path d="m102 120.046875h308v199.117187h-308zm0 0" fill="#61729b"/><path d="m256 120.046875h154v199.117187h-154zm0 0" fill="#47568c"/><path d="m120.046875 138.09375h271.90625v163.023438h-271.90625zm0 0" fill="#f2f2fc"/><path d="m256 138.09375h135.953125v163.023438h-135.953125zm0 0" fill="#d8d8fc"/><g fill="#a3a3d1"><path d="m319.164062 192.835938h54.742188v18.046874h-54.742188zm0 0"/><path d="m319.164062 228.929688h54.742188v18.046874h-54.742188zm0 0"/><path d="m319.164062 265.023438h54.742188v18.046874h-54.742188zm0 0"/></g><path d="m156.742188 228.929688h18.046874v45.117187h-18.046874zm0 0" fill="#ffcebf"/><path d="m192.835938 210.882812h18.046874v63.164063h-18.046874zm0 0" fill="#4bb9ec"/><path d="m228.929688 174.789062h18.046874v99.257813h-18.046874zm0 0" fill="#fdbf00"/><path d="m265.023438 192.835938h18.046874v81.210937h-18.046874zm0 0" fill="#f03800"/><path d="m138.695312 265.023438h162.421876v18.046874h-162.421876zm0 0" fill="#61729b"/><path d="m256 265.023438h45.117188v18.046874h-45.117188zm0 0" fill="#47568c"/><path d="m210.882812 102h90.234376v36.09375h-90.234376zm0 0" fill="#4bb9ec"/><path d="m256 102h45.117188v36.09375h-45.117188zm0 0" fill="#0095ff"/></svg>