<svg id="_x31__x2C_5" enable-background="new 0 0 36 36" height="512" viewBox="0 0 36 36" width="512" xmlns="http://www.w3.org/2000/svg"><g><path d="m4.167 8.377c0 6.917-3.583 11.667-3.583 15s1.916 10.333 17.249 10.333 17.583-9.417 17.583-13.083c.001-17.167-31.249-24.5-31.249-12.25z" fill="#efefef"/></g><g><path d="m31.856 2.467h2v1h-2z" fill="#a4afc1" transform="matrix(.707 -.707 .707 .707 7.525 24.102)"/></g><g><path d="m32.533 6.033h1v2h-1z" fill="#a4afc1" transform="matrix(.707 -.707 .707 .707 4.699 25.413)"/></g><g><path d="m28.467 1.967h1v2h-1z" fill="#a4afc1" transform="matrix(.707 -.707 .707 .707 6.383 21.348)"/></g><g><path d="m27.25 28.25h-18.5c-1.105 0-2-.895-2-2v-15h22.5v15c0 1.105-.895 2-2 2z" fill="#f3f3f1"/></g><g><path d="m29.25 11.25h-22.5v-1.5c0-1.105.895-2 2-2h18.5c1.105 0 2 .895 2 2z" fill="#2fdf84"/></g><g><path d="m18.25 25.25h-6.5c-.552 0-1-.448-1-1v-8.5c0-.552.448-1 1-1h6.5c.552 0 1 .448 1 1v8.5c0 .552-.448 1-1 1z" fill="#2fdf84"/></g><g><path d="m19.25 21.65-1.22-1.52c-.4-.51-1.16-.51-1.56 0l-.68.85c-.22.28-.55.42-.88.42-.279 0-.558-.102-.775-.306-.458-.431-1.141-.499-1.585-.054l-1.8 1.8v1.41c0 .552.448 1 1 1h6.5c.552 0 1-.448 1-1z" fill="#2fdf84"/></g><g><path d="m13 24.25v-8.5c0-.552.448-1 1-1h-2.25c-.552 0-1 .448-1 1v8.5c0 .552.448 1 1 1h2.25c-.552 0-1-.448-1-1z" fill="#00b871"/></g><g><path d="m13 24.25v-1.41l1.514-1.514c-.137-.051-.266-.126-.378-.232-.458-.431-1.141-.499-1.586-.054l-1.8 1.8v1.41c0 .552.448 1 1 1h2.25c-.552 0-1-.448-1-1z" fill="#00b871"/></g><g><path d="m9.25 26.25v-15h-2.5v15c0 1.105.895 2 2 2h2.5c-1.105 0-2-.895-2-2z" fill="#d5dbe1"/></g><g><path d="m11 7.75h-2.25c-1.105 0-2 .895-2 2v1.5h2.25v-1.5c0-1.105.895-2 2-2z" fill="#00b871"/></g><g><path d="m27.25 29h-18.5c-1.517 0-2.75-1.233-2.75-2.75v-16.5c0-1.517 1.233-2.75 2.75-2.75h18.5c1.517 0 2.75 1.233 2.75 2.75v16.5c0 1.517-1.233 2.75-2.75 2.75zm-18.5-20.5c-.689 0-1.25.561-1.25 1.25v16.5c0 .689.561 1.25 1.25 1.25h18.5c.689 0 1.25-.561 1.25-1.25v-16.5c0-.689-.561-1.25-1.25-1.25z"/></g><g><path d="m6.75 10.5h22.5v1.5h-22.5z"/></g><g><path d="m23.25 16.001h1.5v7.5h-1.5z"/></g><g><path d="m24.003 24.001c-.192 0-.384-.073-.53-.22l-2.533-2.533 1.06-1.06 2.003 2.003 2-2 1.061 1.061-2.53 2.53c-.147.146-.339.219-.531.219z"/></g><g><path d="m11.28 23.37-1.06-1.06 1.77-1.77c.729-.73 1.92-.731 2.651 0 .096.097.21.111.27.111.056 0 .195-.013.29-.133l.684-.855c.66-.841 2.068-.846 2.736.005l1.215 1.514-1.17.938-1.22-1.52c-.141-.179-.255-.173-.386-.006l-.684.855c-.651.828-2.034.916-2.797.151-.148-.148-.383-.148-.529.001z"/></g><g><path d="m18.25 26h-6.5c-.965 0-1.75-.785-1.75-1.75v-8.5c0-.965.785-1.75 1.75-1.75h6.5c.965 0 1.75.785 1.75 1.75v8.5c0 .965-.785 1.75-1.75 1.75zm-6.5-10.5c-.138 0-.25.112-.25.25v8.5c0 .138.112.25.25.25h6.5c.138 0 .25-.112.25-.25v-8.5c0-.138-.112-.25-.25-.25z"/></g><g><path d="m2 27.5h32v1.5h-32z"/></g></svg>