<?xml version="1.0" encoding="iso-8859-1"?>
<!-- Generator: Adobe Illustrator 19.0.0, SVG Export Plug-In . SVG Version: 6.00 Build 0)  -->
<svg version="1.1" id="Capa_1" xmlns="http://www.w3.org/2000/svg" xmlns:xlink="http://www.w3.org/1999/xlink" x="0px" y="0px"
	 viewBox="0 0 345.2 345.2" style="enable-background:new 0 0 345.2 345.2;" xml:space="preserve">
<g>
	<path style="fill:#556677;" d="M26.4,270.2V85.4c0-18,14.8-32.4,32.4-32.4h227.6c18,0,32.4,14.8,32.4,32.4v185.2h15.6
		c6,0,10.8,4.8,10.8,10.8s-4.8,10.8-10.8,10.8h-15.6H26.4H10.8c-6,0-10.8-4.8-10.8-10.8s4.8-10.8,10.8-10.8h15.6V270.2z"/>
	<g>
		<path style="fill:#5C707F;" d="M37.2,85.4C37.2,67.4,52,53,69.6,53H59.2c-18,0-32.4,14.8-32.4,32.4v185.2h10.4L37.2,85.4
			L37.2,85.4z"/>
		<path style="fill:#5C707F;" d="M10.8,281c0-6,4.8-10.8,10.8-10.8H11.2c-6,0-10.8,4.8-10.8,10.8s4.8,10.8,10.8,10.8h10.4
			C15.6,291.4,10.8,287,10.8,281z"/>
	</g>
	<path style="fill:#D4D9DD;" d="M49.2,270.2V100.6c0-14.8,12-26.8,26.8-26.8h194c14.8,0,26.8,12,26.8,26.8v169.6H49.2z"/>
	<path style="fill:#E4E7EA;" d="M88,74.2H76c-14.8,0-26.8,12-26.8,26.8v169.6h12v-170C61.2,86.2,73.2,74.2,88,74.2z"/>
	<path style="fill:#556677;" d="M208.8,249H268c5.6,0,10.4,4.8,10.4,10.4v5.6c0,2.8-2.4,5.2-5.2,5.2h-70c-2.8,0-4.8-2.4-4.8-4.8
		v-5.6C198,253.8,202.8,249,208.8,249"/>
	<path style="fill:#5C707F;" d="M204,265.4v-5.6c0-6,4.8-10.8,10.8-10.8h-6c-6,0-10.8,4.8-10.8,10.8v5.6c0,2.8,2.4,4.8,4.8,4.8h6
		C206,270.2,204,268.2,204,265.4z"/>
	<path style="fill:#DC5555;" d="M198,263v2.4c0,2.8,2.4,4.8,4.8,4.8h70.4c2.8,0,5.2-2.4,5.2-5.2v-2.4H198V263z"/>
	<path style="fill:#E06969;" d="M204,265.4V263h-6v2.4c0,2.8,2.4,4.8,4.8,4.8h6C206,270.2,204,268.2,204,265.4z"/>
</g>
<g>
</g>
<g>
</g>
<g>
</g>
<g>
</g>
<g>
</g>
<g>
</g>
<g>
</g>
<g>
</g>
<g>
</g>
<g>
</g>
<g>
</g>
<g>
</g>
<g>
</g>
<g>
</g>
<g>
</g>
</svg>
